<svg width="80" height="80" viewBox="0 0 80 80" fill="none" xmlns="http://www.w3.org/2000/svg">
<rect x="0.5" y="0.5" width="79" height="79" rx="19.5" fill="white"/>
<rect x="0.5" y="0.5" width="79" height="79" rx="19.5" stroke="#E4E9F1"/>
<g clip-path="url(#clip0_1_1127)">
<path d="M59.3561 40.3632L59.0081 40.1518C57.8272 39.0084 56.1808 38.5117 53.9886 38.6343C52.1617 38.7442 50.711 39.448 49.604 40.1138C49.604 40.0969 49.604 40.08 49.604 40.0631C49.6166 39.4794 49.6594 38.8967 49.7324 38.3172C49.8076 37.728 49.8511 37.1354 49.8629 36.5418C49.8827 35.9917 49.7888 35.4433 49.5866 34.9291C49.5619 34.8688 49.5184 34.8175 49.4623 34.7823C49.4062 34.7471 49.3402 34.7297 49.2735 34.7326C48.6819 34.7453 47.5336 35.1384 47.2487 35.3772L47.0964 35.7006C47.0964 36.3347 46.9442 38.1122 46.7985 38.3278L46.7202 38.5392C46.4729 40.7586 46.4649 42.9971 46.6963 45.2181C46.7224 45.4083 47.1008 45.6979 47.3944 45.8015C47.688 45.905 48.7189 45.6556 49.2974 45.4422L49.5149 45.4104C49.5588 45.4045 49.601 45.3901 49.6391 45.3681C49.6772 45.3461 49.7104 45.3169 49.7368 45.2823C49.7631 45.2476 49.7821 45.2082 49.7925 45.1663C49.803 45.1245 49.8047 45.081 49.7976 45.0385L49.8085 44.4868C50.2282 42.834 51.9224 40.8662 53.9233 40.5682C55.0564 40.3949 55.9503 40.6739 56.6549 41.4136C56.7506 41.5468 56.9572 42.7346 56.22 44.1021C55.6632 45.1145 54.554 45.9642 53.0925 46.499C51.7093 47.0083 50.1869 47.2155 48.3078 47.1499L46.5397 45.9938C45.0521 44.9772 43.2013 43.7111 41.5201 43.0918C41.2265 42.984 40.6958 42.5571 40.3805 42.3014L40.2065 42.164C39.2387 41.4073 37.3966 40.2152 35.9155 39.2578L35.1173 38.7378V38.5751C35.1586 38.5307 36.0873 37.9896 36.0873 37.9896C37.3922 37.2499 37.9903 36.8863 38.1186 36.6982C38.0925 36.7278 38.2926 36.5989 38.2926 36.5989L41.5179 34.8256C44.6127 33.1706 48.123 31.2938 49.9672 29.4401L50.0564 29.1569L50.0956 28.9054C50.2167 28.5644 50.2266 28.1953 50.1238 27.8486C50.1076 27.7908 50.0759 27.7383 50.032 27.6963C49.9881 27.6544 49.9334 27.6245 49.8737 27.6098C48.4361 27.4724 46.5788 28.3094 44.889 29.8481C44.5784 30.1275 44.2283 30.3624 43.8494 30.5455L43.5906 30.685C41.7289 31.7144 37.5314 34.2443 35.3261 35.6118C35.5347 32.8321 35.9086 30.0664 36.4461 27.3287L36.3853 27.0032L36.1678 26.5804L35.996 26.2867L35.9459 26.274C35.7827 26.1951 35.6047 26.1491 35.4228 26.1386C35.2408 26.128 35.0585 26.1532 34.8868 26.2127L34.4518 26.367L33.8689 26.5783C33.8125 26.589 33.7602 26.6143 33.7173 26.6515C33.6744 26.6887 33.6427 26.7364 33.6254 26.7897C32.5771 29.2541 31.7028 33.3122 31.507 36.5503C29.8932 35.5663 28.2231 34.6722 26.5049 33.8723L26.4766 33.8575L26.3613 33.8343C26.0221 33.7899 25.6045 33.5468 25.2021 33.3101L24.4061 32.8092L23.1947 32.0441C23.2078 32.0441 22.875 31.9743 22.875 31.9743C22.3509 32.061 21.3526 32.7183 21.0503 33.1622C21.0126 33.2195 20.9936 33.2865 20.996 33.3545C21.0011 33.4495 21.0194 33.5433 21.0503 33.6335L21.1047 33.8745L21.1612 34.0203C21.7441 34.6015 23.2165 35.5717 24.6628 36.3283L26.3374 37.1907L28.8972 38.5582C28.8972 38.5687 29.3322 38.8942 29.3322 38.8942L29.6345 39.0633L29.6867 39.095L25.0325 42.1217L22.5901 43.7006C22.1326 43.9457 21.6614 44.1658 21.1786 44.36C20.7126 44.5141 20.3205 44.8283 20.076 45.2435L20.0107 45.3809L20.0782 45.4717L20.263 45.6091L20.5175 45.7698L20.785 45.9494L21.0416 45.9875C21.4766 46.0044 22.1117 45.7655 23.3057 45.2583C24.3931 44.7848 27.3792 43.0411 28.6515 42.2992L29.1952 41.9822C29.4127 41.9991 29.6671 41.8152 29.8868 41.6525C30.2463 41.3918 30.6317 41.1666 31.0373 40.9804C31.0373 40.9804 31.2417 40.8726 31.4201 40.769C31.4201 40.8261 31.4201 40.9127 31.4201 40.9127C31.4766 44.6961 31.7028 47.4458 32.1269 49.5658V49.6059L32.1682 49.6905C32.3857 49.9906 32.6162 50.8868 32.8207 51.6773L33.3057 53.2561C33.3057 53.2751 33.4448 53.4062 33.4448 53.4062C33.7211 53.5858 34.5627 53.9008 35.1282 53.8289L35.2674 53.812L35.3565 53.6196C35.4028 53.3814 35.4247 53.1393 35.4218 52.8968C35.4218 52.6072 35.4 52.2881 35.3718 51.8992L35.3348 51.3285C35.1565 48.6971 34.9868 44.8799 34.9868 42.3436C34.9868 42.2739 34.9868 42.2105 34.9868 42.1323C35.4457 42.4155 37.4683 43.6519 37.4683 43.6519C40.9068 45.8184 46.1003 49.0944 49.2387 49.961C49.3169 49.9849 49.4002 49.9881 49.4801 49.9703C49.56 49.9524 49.6336 49.9142 49.6932 49.8596L50.1782 49.5573L50.2652 49.5214C50.4479 49.439 50.5697 49.1431 50.5893 48.8218C53.2361 48.695 56.9268 47.7037 58.8994 45.2921C59.6077 44.4187 59.9978 43.3415 60.0086 42.2295C60.0086 41.4284 59.778 40.7331 59.3561 40.3526" fill="#F8B500"/>
</g>
<defs>
<clipPath id="clip0_1_1127">
<rect width="40" height="27.6923" fill="white" transform="translate(20 26.1538)"/>
</clipPath>
</defs>
</svg>
